<svg xmlns="http://www.w3.org/2000/svg" viewBox="0 0 32 32" fill="none">
  <defs>
    <linearGradient id="mrFlap" x1="16" y1="2.5" x2="16" y2="14">
      <stop offset="0" stop-color="#F5F6F8"/>
      <stop offset="1" stop-color="#C2C6CD"/>
    </linearGradient>
    <linearGradient id="mrBody" x1="16" y1="13" x2="16" y2="28">
      <stop offset="0" stop-color="#E9EBEE"/>
      <stop offset="1" stop-color="#B4B8C0"/>
    </linearGradient>
    <linearGradient id="mrInner" x1="16" y1="13" x2="16" y2="22">
      <stop offset="0" stop-color="#F8F9FA"/>
      <stop offset="1" stop-color="#D4D6DB"/>
    </linearGradient>
  </defs>
  <path
    d="M16 2.8 27.2 9.4c.6.36.9.9.8 1.5L16 14.8 4 10.9c-.12-.6.16-1.14.8-1.5Z"
    fill="url(#mrFlap)"
    stroke="#8A8F98"
    stroke-width="1.1"
    stroke-linejoin="round"
  />
  <path d="M6.2 10.2 16 4.4 25.8 10.2" stroke="#F7F8FA" stroke-width=".75" stroke-linecap="round" opacity=".8"/>
  <path d="M3.2 12.2h25.6v13.2c0 1.05-.85 1.9-1.9 1.9H5.1c-1.05 0-1.9-.85-1.9-1.9V12.2Z" fill="url(#mrBody)" stroke="#8A8F98" stroke-width="1.15"/>
  <path d="M4.8 13h22.4v5.2L16 24 4.8 18.2Z" fill="url(#mrInner)"/>
  <path d="M3.6 12.6 16 21.4 28.4 12.6" stroke="#8A8F98" stroke-width="1.05" stroke-linejoin="round"/>
</svg>
